<?xml version="1.0" encoding="UTF-8" standalone="no"?>
<!-- Created with Inkscape (http://www.inkscape.org/) -->

<svg
   xmlns:dc="http://purl.org/dc/elements/1.1/"
   xmlns:cc="http://creativecommons.org/ns#"
   xmlns:rdf="http://www.w3.org/1999/02/22-rdf-syntax-ns#"
   xmlns:svg="http://www.w3.org/2000/svg"
   xmlns="http://www.w3.org/2000/svg"
   xmlns:sodipodi="http://sodipodi.sourceforge.net/DTD/sodipodi-0.dtd"
   xmlns:inkscape="http://www.inkscape.org/namespaces/inkscape"
   width="281.23248"
   height="338.08997"
   id="svg2"
   version="1.1"
   inkscape:version="0.48.5 r10040"
   sodipodi:docname="CancerCellsKey.svg">
  <defs
     id="defs4" />
  <sodipodi:namedview
     id="base"
     pagecolor="#ffffff"
     bordercolor="#666666"
     borderopacity="1.0"
     inkscape:pageopacity="0.0"
     inkscape:pageshadow="2"
     inkscape:zoom="0.12374369"
     inkscape:cx="1303.5637"
     inkscape:cy="-695.43462"
     inkscape:document-units="px"
     inkscape:current-layer="layer1"
     showgrid="false"
     inkscape:window-width="1280"
     inkscape:window-height="691"
     inkscape:window-x="51"
     inkscape:window-y="0"
     inkscape:window-maximized="0"
     fit-margin-top="0"
     fit-margin-left="0"
     fit-margin-right="0"
     fit-margin-bottom="0" />
  <metadata
     id="metadata7">
    <rdf:RDF>
      <cc:Work
         rdf:about="">
        <dc:format>image/svg+xml</dc:format>
        <dc:type
           rdf:resource="http://purl.org/dc/dcmitype/StillImage" />
        <dc:title></dc:title>
      </cc:Work>
    </rdf:RDF>
  </metadata>
  <g
     inkscape:label="Layer 1"
     inkscape:groupmode="layer"
     id="layer1"
     transform="translate(-1450.2848,-3689.4978)">
    <g
       inkscape:tile-y0="108.35791"
       inkscape:tile-x0="-12.575704"
       id="use13337"
       transform="translate(1502.627,3628.9425)">
      <path
         sodipodi:type="star"
         style="fill:#ff8080;fill-opacity:1;stroke:#000000;stroke-width:2;stroke-miterlimit:4;stroke-opacity:1;stroke-dasharray:none;stroke-dashoffset:0"
         id="path19834"
         sodipodi:sides="8"
         sodipodi:cx="88.571426"
         sodipodi:cy="209.50504"
         sodipodi:r1="103.01575"
         sodipodi:r2="51.507874"
         sodipodi:arg1="0.98279372"
         sodipodi:arg2="1.3754928"
         inkscape:flatsided="true"
         inkscape:rounded="0.1"
         inkscape:randomized="0"
         d="m 145.71428,295.21932 c -6.56029,4.37352 -69.614531,16.84724 -77.345903,15.30097 -7.731373,-1.54628 -61.1377083,-37.31211 -65.5112331,-43.8724 -4.3735248,-6.56029 -16.8472429,-69.61453 -15.3009689,-77.3459 1.546275,-7.73138 37.312109,-61.13771 43.872396,-65.51124 6.560287,-4.37352 69.614529,-16.84724 77.345909,-15.30097 7.73137,1.54628 61.1377,37.31211 65.51123,43.8724 4.37352,6.56029 16.84724,69.61453 15.30097,77.34591 -1.54628,7.73137 -37.31211,61.1377 -43.8724,65.51123 z"
         inkscape:transform-center-x="0.37306427"
         inkscape:transform-center-y="1.0216075"
         transform="matrix(1,0,0,1.1147999,0,-12.439474)" />
      <path
         sodipodi:type="arc"
         style="fill:#ffd5d5;fill-opacity:1;stroke:#000000;stroke-width:2;stroke-miterlimit:4;stroke-opacity:1;stroke-dasharray:none;stroke-dashoffset:0"
         id="path19836"
         sodipodi:cx="102.85714"
         sodipodi:cy="213.79076"
         sodipodi:rx="40"
         sodipodi:ry="38.57143"
         d="m 142.85714,213.79076 c 0,21.30241 -17.90861,38.57143 -40,38.57143 -22.09139,0 -40,-17.26902 -40,-38.57143 0,-21.30242 17.90861,-38.57143 40,-38.57143 22.09139,0 40,17.26901 40,38.57143 z"
         transform="matrix(1,0,0,1.2355706,4.0406102,-27.134393)" />
      <path
         sodipodi:type="arc"
         style="fill:#ff8080;fill-opacity:1;stroke:#000000;stroke-width:2;stroke-miterlimit:4;stroke-opacity:1;stroke-dasharray:none;stroke-dashoffset:0"
         id="path19838"
         sodipodi:cx="100"
         sodipodi:cy="218.07646"
         sodipodi:rx="11.428572"
         sodipodi:ry="14.285714"
         d="m 111.42857,218.07646 c 0,7.88978 -5.11674,14.28572 -11.42857,14.28572 -6.311826,0 -11.428572,-6.39594 -11.428572,-14.28572 0,-7.88978 5.116746,-14.28571 11.428572,-14.28571 6.31183,0 11.42857,6.39593 11.42857,14.28571 z"
         transform="translate(2.0203051,13.131983)" />
    </g>
    <rect
       style="fill:none;stroke:#000000;stroke-width:1.9699347;stroke-miterlimit:4;stroke-opacity:1;stroke-dasharray:none;stroke-dashoffset:0"
       id="rect15216"
       width="5988.6016"
       height="5988.6016"
       x="30.924845"
       y="519.39746" />
    <g
       id="g22984"
       transform="translate(897.01546,-759.63471)">
      <path
         sodipodi:type="star"
         style="fill:#00ff00;fill-opacity:1;stroke:#000000;stroke-width:2;stroke-miterlimit:4;stroke-opacity:1;stroke-dasharray:none;stroke-dashoffset:0"
         id="path15067"
         sodipodi:sides="7"
         sodipodi:cx="88.571426"
         sodipodi:cy="209.50504"
         sodipodi:r1="103.01575"
         sodipodi:r2="51.507874"
         sodipodi:arg1="0.98279372"
         sodipodi:arg2="1.4315927"
         inkscape:flatsided="false"
         inkscape:rounded="0.1"
         inkscape:randomized="0"
         d="m 145.71428,295.21932 c -5.0639,3.37593 -43.96872,-35.54912 -49.995905,-34.70466 -6.027181,0.84447 -32.736383,48.9627 -38.533086,47.10844 -5.796703,-1.85426 0.379371,-56.54065 -4.038746,-60.72637 -4.418117,-4.18573 -58.6913762,4.9334 -60.8558446,-0.75475 C -9.8737702,240.45382 36.732491,211.18606 37.25037,205.12209 37.76825,199.05811 -3.2001956,162.31125 -0.10254072,157.07249 2.9951143,151.83373 54.936098,170.02383 60,166.64789 c 5.063902,-3.37593 8.250345,-58.31764 14.277526,-59.16211 6.027181,-0.84447 24.190267,51.10597 29.986974,52.96022 5.7967,1.85426 50.73857,-29.91007 55.15669,-25.72435 4.41812,4.18572 -24.87387,50.77676 -22.7094,56.46492 2.16447,5.68815 55.01963,21.02038 54.50175,27.08436 -0.51788,6.06398 -55.20748,12.21162 -58.30513,17.45038 -3.09766,5.23876 17.86977,56.12207 12.80587,59.49801 z"
         inkscape:transform-center-x="0.37306427"
         inkscape:transform-center-y="1.0216075"
         transform="matrix(1.399,0,0,1.6721998,1381.7801,3745.787)" />
      <path
         sodipodi:type="arc"
         style="fill:#00ff00;fill-opacity:1;stroke:#000000;stroke-width:2;stroke-miterlimit:4;stroke-opacity:1;stroke-dasharray:none;stroke-dashoffset:0"
         id="path15069"
         sodipodi:cx="102.85714"
         sodipodi:cy="213.79076"
         sodipodi:rx="40"
         sodipodi:ry="38.57143"
         d="m 142.85714,213.79076 c 0,21.30241 -17.90861,38.57143 -40,38.57143 -22.09139,0 -40,-17.26902 -40,-38.57143 0,-21.30242 17.90861,-38.57143 40,-38.57143 22.09139,0 40,17.26901 40,38.57143 z"
         transform="matrix(1.399,0,0,1.8533559,1381.376,3714.7179)" />
      <path
         transform="matrix(1.399,0,0,1.5,1380.4957,3778.0229)"
         d="m 111.42857,218.07646 c 0,7.88978 -5.11674,14.28572 -11.42857,14.28572 -6.311826,0 -11.428572,-6.39594 -11.428572,-14.28572 0,-7.88978 5.116746,-14.28571 11.428572,-14.28571 6.31183,0 11.42857,6.39593 11.42857,14.28571 z"
         sodipodi:ry="14.285714"
         sodipodi:rx="11.428572"
         sodipodi:cy="218.07646"
         sodipodi:cx="100"
         id="path16893"
         style="fill:#00ff00;fill-opacity:1;stroke:#000000;stroke-width:2;stroke-miterlimit:4;stroke-opacity:1;stroke-dasharray:none;stroke-dashoffset:0"
         sodipodi:type="arc" />
    </g>
  </g>
</svg>
