<?xml version="1.0" encoding="UTF-8" standalone="no"?>
<!-- Generator: Adobe Illustrator 12.0.0, SVG Export Plug-In . SVG Version: 6.00 Build 51448)  -->

<svg
   xmlns:dc="http://purl.org/dc/elements/1.1/"
   xmlns:cc="http://creativecommons.org/ns#"
   xmlns:rdf="http://www.w3.org/1999/02/22-rdf-syntax-ns#"
   xmlns:svg="http://www.w3.org/2000/svg"
   xmlns="http://www.w3.org/2000/svg"
   xmlns:sodipodi="http://sodipodi.sourceforge.net/DTD/sodipodi-0.dtd"
   xmlns:inkscape="http://www.inkscape.org/namespaces/inkscape"
   version="1.1"
   id="Layer_1"
   width="37.460457"
   height="16.159468"
   viewBox="0 0 37.460455 16.159468"
   overflow="visible"
   enable-background="new 0 0 399.821 214.98"
   xml:space="preserve"
   sodipodi:version="0.32"
   inkscape:version="0.48.5 r10040"
   sodipodi:docname="Neuron.svg"
   style="overflow:visible"><metadata
     id="metadata78"><rdf:RDF><cc:Work
         rdf:about=""><dc:format>image/svg+xml</dc:format><dc:type
           rdf:resource="http://purl.org/dc/dcmitype/StillImage" /><dc:title></dc:title></cc:Work></rdf:RDF></metadata><defs
     id="defs76" /><sodipodi:namedview
     inkscape:window-height="755"
     inkscape:window-width="1280"
     inkscape:pageshadow="2"
     inkscape:pageopacity="0.0"
     guidetolerance="10.0"
     gridtolerance="10.0"
     objecttolerance="10.0"
     borderopacity="1.0"
     bordercolor="#666666"
     pagecolor="#ffffff"
     id="base"
     inkscape:zoom="1.8327287"
     inkscape:cx="44.55846"
     inkscape:cy="-94.026735"
     inkscape:window-x="-4"
     inkscape:window-y="0"
     inkscape:current-layer="Layer_1"
     showgrid="false"
     fit-margin-top="0"
     fit-margin-left="0"
     fit-margin-right="0"
     fit-margin-bottom="0"
     inkscape:window-maximized="0" /><path
     d="m -28.519053,178.43597 c 3.606,-1.491 1,-6.333 1,-6.333 0,0 -26.333,-5 -21,-24 5.333,-19 5.333,-19 5.333,-19 0,0 6.333,-4.668 11.667,-8.334 5.334,-3.666 3.667,-4.999 -0.667,-3.666 -0.667,-1.334 2.333,-4.667 2.667,-5.333 0.333,-0.668 6,-13.001002 -5.333,3.666 0,1 -9.667,12 -4,-7.666 0,0 7.333,-35.334002 -1,-9.668002 0,0 -2,6.334002 -4,2.000002 0,0 4,13.335 -8.333,46.001 -3,-2.667 -5,-5.334 -5,-5.334 -1,-1.666 -1.667,-5.666 3,-14.333 4.667,-8.667 7.333,-14 7.333,-14 0,0 4.333,-8.334 -1,-2.334 0,0 0.333,-18.999002 -3,4.334 0,0 -2.666,4.001 -4.333,5.667 0,0 4.667,-11 -1,-8.333 0,0 -3,-7 -2.667,1 0.333,7.999 2,9.667 1,14.333 -1,4.666 -2.667,2.666 -3,-1.334 -0.333,-4 -10,0.334 5.333,24.667 0,0 5.333,25.333 -14.333,7.333 0,0 -24.667,-19.667 7,-43 -4,3 -5.667,6.335 -5,2.334 0.667,-4.001 0,-3.667 0,-3.667 0,0 -3.667,7.001 -6,8.667 -2.333,1.666 -11.667,4.667 9,-18.667 -4,3 -11.333,8.667 -4,-7.667002 -7,11.000002 -11.333,23.667002 -15.333,12.667002 0,0 4.333,46.332 -6,16.333 0,0 -3.667,-6 5,-35.667002 -3,6.667 -5.667,16.000002 -5,-3.333 0,0 -3,1 -2.333,22.333002 0,0 -9.332997,21.334 -7.333,-7 0,0 3,-12.666002 3.333,-15.000002 0.333,-2.334 -1.667,0.667 -2.333,2 -0.666,1.333 -0.667,-5 -0.667,-5 0,0 -1.999997,3 -2.332997,7 -0.333,4 -3.333,-3 -4.333,-4.667 -1,-1.667 6.665997,11 1.333,21.666002 0,0 -7.666,-12.666002 -8.333,-9.000002 -0.667,3.667002 15.999997,23.668002 16.332997,25.001002 0.333,1.333 10,11 -2,9.333 -3.999997,-0.333 -6.332997,-2.667 -8.332997,-6 -2,-3.333 -6.333,-10 -6.333,-10 l -9.667,-11 -0.668,-15.333002 -1.333,3.667 -2.333,-2.333 2,4.667 0.333,6.333002 -2.333,1 c 0,0 27.999997,28.334 5.333,17.667 0,0 -8.334,2.334 10.333,7 0,0 1.333,7.666 17.332997,8.666 0,0 12,13.001 15,25.334 0,0 3.333,26.667 -12,6 0,0 3,7.333 1,7.333 -2,0 -11.666997,-5.667 -12.999997,-5.667 -1.333,0 -5.333,2 -5.333,2 0,0 26.999997,6.666 1.667,7 0,0 -18,6.333 -11,-36 0,0 -2.333,12.334 -4.333,0.667 0,0 -5.333,26.334 0,36.667 0,0 5,6.332 -2.333,6.666 0,0 9,-1.334 18,-4 0,0 -6.667,13.334 -10,13.334 0,0 3,0.666 -0.333,2.666 0,0 1.333,2.666 5,-2 3.667,-4.666 9,-15.999 21.999997,-15.666 4.333,1.333 20.333,14.666 -4,19.333 -7.332997,3 -34.999997,13.001 -32.666997,14.667 2.333,1.666 16.333,-8.334 14,-3.334 -2.333,5 -10,19.334 -10,19.334 0,0 9.333,-21.333 7.333,-5 1,1.333 25.332997,-45.333 8,0 0.333,1 4.333,-6.001 5,3.333 0,0 0.333,-35.332 25.332997,-24.666 0.667,9 -4.667,21.332 -18.667,29.666 14.333,-8.333 16.667,-12 10,2 3.333,-3.333 5,-2.999 6,1.334 1.333,-15 4,-19.666 6.667,-22 2.667,7 3.667,9.999 4,11.666 0.333,1.667 -1.667,-23.667 -2,-25 -0.333,-1.333 13,-0.666 13,-0.666 0,0 10,19.334 5.667,28 2.333,-7.334 -1.667,-22.001 16,3.666 0,0 -12,-13.333 7.333,-8.333 -6.667,-5.333 -19,-12.666 -22.333,-18.333 -3.333,-5.667 -4,-13.333 6.333,-6 10.333,7.333 16.667,10.332 17.667,9.666 1,-0.666 -19.667,-10 3.333,-6 -14.667,-6.333 -39,-11.667 -4.334,-26 z"
     id="path3"
     inkscape:connector-curvature="0"
     style="fill:#afa3cf;stroke:#000000;stroke-width:1" /><path
     d="m -70.227053,182.93597 c -0.125,-4.5 1.375,-5.875 4.125,-5.5 2.75,0.375 5.5,1.625 6.625,2.875 1.125,1.25 2.75,3.5 3,4.375 0.25,0.875 0.375,1.75 0.5,2.625 0.125,0.875 0.5,1.75 0.125,2.5 -0.375,0.75 -0.875,2.375 -1.875,2.5 -1,0.125 -1.625,0.375 -2.75,-0.25 -1.125,-0.625 -2.875,-1.75 -3.625,-2.375 -0.75,-0.625 -3.75,-3.625 -4.375,-4.5 -0.625,-0.875 -1.75,-2.25 -1.75,-2.25 z"
     id="path5"
     inkscape:connector-curvature="0"
     style="fill:#5b9974;stroke:#000000;stroke-width:1" /><path
     d="m -27.852053,179.68597 c 2.25,-4.5 1.625,-6 1.125,-7.375 -0.5,-1.375 17.6249996,-2 29.9999996,5 0,0 11.7500004,4 1.25,11.5 0,0 -19.4999996,2.875 -32.3749996,-9.125 z"
     id="path7"
     inkscape:connector-curvature="0"
     style="fill:#f9d566;stroke:#000000;stroke-width:1" /><path
     d="m 13.022947,192.18597 c 0,0 -3.6250004,-1.75 -2.5,-5 1.125,-3.25 2.125,-3.25 3.125,-3.625 1,-0.375 6.75,-0.25 7.25,-0.25 0.5,0 19.75,2 22.375,4.25 2.625,2.25 3.5,5 3.5,6.125 0,1.125 -0.25,4.75 -3.75,4.75 -3.5,0 -18.375,-0.25 -19,-0.875 -0.625,-0.625 -8.5,-2.75 -11,-5.375 z"
     id="path9"
     inkscape:connector-curvature="0"
     style="fill:#f9d566;stroke:#000000;stroke-width:1" /><path
     d="m 59.022947,201.43597 c -6.625,-2.125 -9.5,-4.625 -9.25,-7.25 0.25,-2.625 0.75,-3.625 1.875,-4.25 1.125,-0.625 3.875,-1.375 4.625,-1.625 0.75,-0.25 22.375,-3.375 24.5,-2.875 2.125,0.5 4.75,3 5,4.5 0.25,1.5 2.625,5 -2.75,7.25 -5.375,2.25 -9.375,3.75 -13,4 -3.625,0.25 -11,0.25 -11,0.25 z"
     id="path11"
     inkscape:connector-curvature="0"
     style="fill:#f9d566;stroke:#000000;stroke-width:1" /><path
     d="m 96.772947,191.81097 c -6.009,0.376 -7.875,1.125 -7.75,-3.375 0.125,-4.5 -0.375,-6.125 3.25,-7.875 3.625,-1.75 13.875003,-8.5 15.500003,-9.25 1.625,-0.75 6.875,-2.375 9.25,0.75 2.375,3.125 2.125,4.5 -0.375,7.25 -2.5,2.75 -15.875,12.25 -19.875003,12.5 z"
     id="path13"
     inkscape:connector-curvature="0"
     style="fill:#f9d566;stroke:#000000;stroke-width:1" /><path
     d="m 118.64795,169.18597 c -2.44,-4.532 -3.375,-7 -1.125,-10.25 2.25,-3.25 13.125,-18.75 13.5,-19.25 0.375,-0.5 4.625,-2.375 8.375,0.875 3.75,3.25 4.5,5.5 1,10.25 -3.5,4.75 -11.625,17.5 -14.5,19 -2.875,1.5 -5.5,2.625 -7.25,-0.625 z"
     id="path15"
     inkscape:connector-curvature="0"
     style="fill:#f9d566;stroke:#000000;stroke-width:1" /><ellipse
     cx="140"
     cy="130.964"
     rx="3.375"
     ry="2.125"
     id="ellipse17"
     sodipodi:cx="140"
     sodipodi:cy="130.964"
     sodipodi:rx="3.375"
     sodipodi:ry="2.125"
     style="fill:#e68b60;stroke:#b76328"
     transform="translate(-155.35205,46.346968)" /><ellipse
     cx="181.875"
     cy="144.839"
     rx="3.375"
     ry="2.125"
     id="ellipse19"
     sodipodi:cx="181.875"
     sodipodi:cy="144.839"
     sodipodi:rx="3.375"
     sodipodi:ry="2.125"
     style="fill:#e68b60;stroke:#b76328"
     transform="translate(-155.35205,46.346968)" /><ellipse
     cx="224.125"
     cy="147.839"
     rx="3.375"
     ry="2.125"
     id="ellipse21"
     sodipodi:cx="224.125"
     sodipodi:cy="147.839"
     sodipodi:rx="3.375"
     sodipodi:ry="2.125"
     style="fill:#e68b60;stroke:#b76328"
     transform="translate(-155.35205,46.346968)" /><ellipse
     transform="matrix(0.912,-0.4103,0.4103,0.912,-187.65865,164.21687)"
     cx="258.5"
     cy="134.214"
     rx="3.375"
     ry="2.125"
     id="ellipse23"
     sodipodi:cx="258.5"
     sodipodi:cy="134.214"
     sodipodi:rx="3.375"
     sodipodi:ry="2.125"
     style="fill:#e68b60;stroke:#b76328" /><ellipse
     transform="matrix(0.5422,-0.8402,0.8402,0.5422,-115.80905,333.85407)"
     cx="283.625"
     cy="107.464"
     rx="3.375"
     ry="2.125"
     id="ellipse25"
     sodipodi:cx="283.625"
     sodipodi:cy="107.464"
     sodipodi:rx="3.375"
     sodipodi:ry="2.125"
     style="fill:#e68b60;stroke:#b76328" /><path
     d="m 8.8979466,183.43597 c 2.2500004,0.5 3.7500004,0.5 3.7500004,0.5 l -2.125,3.25 -4.1250004,-0.125 2.5,-3.625 z"
     id="path27"
     inkscape:connector-curvature="0"
     style="fill:#afa3cf;stroke:#000000;stroke-width:1" /><path
     d="m 46.397947,191.56097 4.125,-0.25 -0.875,4.125 h -3.125 c 0,0 0.25,-3.375 -0.125,-3.875 z"
     id="path29"
     inkscape:connector-curvature="0"
     style="fill:#afa3cf;stroke:#000000;stroke-width:1" /><path
     d="m 84.897947,187.93597 c 0,0 3.375,-2.5 3.625,-3.125 0.25,-0.625 0.375,5 0.5,5.375 0.125,0.375 -2.25,0.875 -2.25,0.875 l -1.875,-3.125 z"
     id="path31"
     inkscape:connector-curvature="0"
     style="fill:#afa3cf;stroke:#000000;stroke-width:1" /><path
     d="m 114.27295,170.06097 2.75,-3.875 2.875,4.375 -2,1.875 c 0,0 -1.75,-2.125 -3.625,-2.375 z"
     id="path33"
     inkscape:connector-curvature="0"
     style="fill:#afa3cf;stroke:#000000;stroke-width:1" /><path
     d="m 135.81495,138.60297 c 0.041,-0.09 0.082,-0.18 0.123,-0.27 3.275,-7.251 5.894,-14.772 7.21,-18.064 1.333,-3.333 1.833,-11.166 1.333,-12 -0.5,-0.834 -2,-6.5 -5.833,-5.333 -3.833,1.167 -2.501,0 -3.667,1.833 -1.166,1.833 -3.999,2 -4.166,0.333 -0.167,-1.667 0.5,-2.167 3.333,-2.667 2.833,-0.5 1.333,-2.500002 -0.667,-4.333002 -2,-1.833 -7.334,-1.833 -3.5,-4.333 3.834,-2.5 4,-2.834 5.5,-1.667 1.5,1.167 -3.167,2 1,4.5 4.167,2.5 7.166,4.000002 8.5,4.167002 1.334,0.167 2.5,0.333 2.5,-1.167002 0,-1.5 1.667,-3 2.667,-3.833 1,-0.833 1.5,-4.167 1.5,-4.167 0,0 -3.5,-3.166 -0.5,-2.833 3,0.333 4.5,0.5 3,2.333 0.333,0.5 -0.166,2 0.167,2.5 0.333,0.5 5.333,-0.166 5.333,-0.166 0,0 4.5,-0.333 3,2.5 -0.333,0.833 -1.5,2 -3.5,0.667 -1.833,0.333 -3.667,-0.333 -4.167,-0.167 -0.5,0.166 -7.167,3.167 -6.5,18.167002 4.5,-2.5 17.668,-10.334 19.334,-11 1.666,-0.666 9.666,-9.833002 9.833,-10.667002 0.167,-0.834 -1.666,-3.333 -1.333,-4 0.333,-0.667 3.499,-2 4.166,-2.167 0.667,-0.167 1.501,-2 2.334,0.167 0.833,2.167 0.667,2.167 0,2.667 -0.667,0.5 -1.166,0.833 -1,1.833 0.166,1 0.333,1.667 0.833,1.5 0.5,-0.167 0.833,0.833 0.833,0.833 l -6.666,5.333 c 0,0 6.167,-1.167 7,-2 0.833,-0.833 2.5,-1.667 2.833,-0.5 0.333,1.167 0.667,0.834 0,1.667 -0.667,0.833 -1.833,1.666 -4,2.333002 -2.167,0.667 -3.667,1.333 -5,1.5 -1.333,0.167 -3.833,1 -3.833,1 0,0 -1.333,0.333 -4,2.5 -2.667,2.167 -4.5,3.167 -6.167,4.167 -1.667,1 -2.833,1.333 -4.5,2.5 -1.667,1.167 -4.5,2.5 -4.5,2.5 0,0 -2.501,0.834 -3.167,1.667 -0.666,0.833 -1.832,2.167 -2.166,2.667 -0.334,0.5 -1,2.166 -1,2.166 l -0.667,3 -2.167,2.5 -0.5,2.334 c 0,0 4.166,0.5 5,0.5 0.834,0 1.5,-0.001 2.667,-0.834 1.167,-0.833 1,-0.334 2,-1.5 1,-1.166 2.167,-2.333 2.667,-3.333 0.5,-1 1.666,-2.167 2.666,-3 1,-0.833 2.333,-2.001 3,-2.167 0.667,-0.166 3,-0.833 3.5,-1.333 0.5,-0.5 1.001,0.001 1.334,-0.833 0.333,-0.834 1.334,-2.5 1.5,-3.333 0.166,-0.833 0.166,-1.167 0.833,-1.167 0.667,0 1.167,-0.333 1.5,0.5 0.333,0.833 1.001,0.667 0.667,1.833 -0.334,1.166 -0.667,1.833 -0.667,1.833 l 0.167,0.334 c 0,0 1.5,0.499 2,-0.334 0.5,-0.833 1.333,-1.333 1.333,-1.333 l 1,-1.333 0.833,-1.5 0.834,-0.667 1.5,-0.333 c 0,0 0.5,0 0.833,1.167 0.333,1.167 0.5,1.667 0.5,2.167 0,0.5 -2,2 -2,2 l -0.667,0.667 c 0,0 -1.5,0.332 -2,0.666 -0.5,0.334 -2.166,0.834 -2.166,0.834 l -2.334,0.166 -1.666,0.834 -0.667,0.5 v 1 c 0,0 0.667,0.834 1.167,1 0.5,0.166 3.5,0 3.5,0 l 0.666,-0.167 -1,1.333 -3.333,0.667 c 0,0 -0.834,0.166 -1.667,0.333 -0.833,0.167 -3,0.5 -3,0.5 0,0 -1.834,0.834 -2.5,1.334 -0.666,0.5 -2,0.167 -0.833,1 1.167,0.833 0.333,1.334 4,1 3.667,-0.334 1.334,-0.667 4.667,0.333 3.333,1 4,0.667 6,1.667 2,1 -1.334,0.332 4.333,2.166 5.667,1.834 5.499,1.666 9.333,3 3.834,1.334 3.333,-0.5 4.5,2 1.167,2.5 6.667,2.833 1.167,2.5 -5.5,-0.333 -4.499,-0.333 -7.333,-1.333 -2.834,-1 -2.5,-1.167 -6.667,-2.667 -4.167,-1.5 -6.667,-3.667 -2.167,1.5 4.5,5.167 5.5,5.667 6.167,10.167 0.667,4.5 1,14.167 5,14.5 4,0.333 7.501,1.333 5.167,3.333 -2.334,2 -6.168,0.668 -7.334,-1.166 -1.166,-1.834 -3.666,-3.5 -4.166,-6 -0.5,-2.5 0.334,-4.501 -0.5,-4.834 -0.834,-0.333 -0.834,-0.332 -1.667,0.334 -0.833,0.666 -0.333,-0.834 -1.5,1.833 -1.167,2.667 -1.501,3.167 -2.167,3.5 -0.666,0.333 -4.166,0.834 -4.166,-0.833 0,-1.667 0.5,-2.168 1.333,-2.334 0.833,-0.166 -0.667,1.333 2,-1 2.667,-2.333 3.834,-4.166 4.167,-5.166 0.333,-1 2.166,-5.5 -5.667,-11.167 -7.833,-5.667 -13.666,-9.166 -20.833,-5.833 2,3 5.667,5.333 5.5,11.333 0,0.667 2.832,3 -0.334,4 -0.5,0.167 -3.5,0.333 -1.833,-4 0,-2.167 0.501,-3.499 -3.833,-7.333 0.166,3.666 -0.168,7.332 0.166,8.666 0.334,1.334 3.168,4.501 -0.666,5.834 -2.167,-0.5 -3.834,-1.833 -1.334,-6 0,-3.834 -3.999,-20.333 -14.166,-5 -2.334,-0.668 -3.5,-1.501 -3.5,-1.501 z"
     id="path35"
     inkscape:connector-curvature="0"
     style="fill:#afa3cf;stroke:#000000;stroke-width:1" /><path
     d="M 211.98095,178.10297"
     id="path37"
     inkscape:connector-curvature="0"
     style="fill:#afa3cf;stroke:#000000;stroke-width:1" /><line
     x1="-12.852054"
     y1="124.43597"
     x2="-43.852055"
     y2="164.93596"
     id="line39"
     style="stroke:#000000;stroke-width:1" /><line
     x1="-81.352051"
     y1="64.935966"
     x2="-79.852051"
     y2="111.43597"
     id="line41"
     style="stroke:#000000;stroke-width:1" /><line
     x1="-65.852051"
     y1="188.43597"
     x2="-111.85205"
     y2="246.43597"
     id="line43"
     style="fill:none;stroke:#000000;stroke-width:1" /><line
     x1="-27.852053"
     y1="179.68597"
     x2="-12.352054"
     y2="208.43597"
     id="line45"
     style="fill:none;stroke:#000000;stroke-width:1" /><line
     x1="71.647949"
     y1="201.43597"
     x2="72.147949"
     y2="229.93597"
     id="line47"
     style="fill:none;stroke:#000000;stroke-width:1" /><line
     x1="104.01996"
     y1="182.49797"
     x2="148.64795"
     y2="205.93597"
     id="line49"
     style="fill:none;stroke:#000000;stroke-width:1" /><line
     x1="115.64795"
     y1="167.43596"
     x2="99.647949"
     y2="115.43597"
     id="line51"
     style="fill:none;stroke:#000000;stroke-width:1" /><line
     x1="194.98096"
     y1="137.26897"
     x2="193.64795"
     y2="81.935966"
     id="line53"
     style="fill:none;stroke:#000000;stroke-width:1" /><text
     font-size="14"
     id="text55"
     style="font-size:14px;font-family:Verdana"
     x="-113.35205"
     y="58.435867">Dendrite</text>
<text
     font-size="14"
     id="text57"
     style="font-size:14px;font-family:Verdana"
     x="-17.352053"
     y="122.93587">Cell body</text>
<text
     id="text59"
     x="69.461449"
     y="95.935867"
     style="font-size:12px"><tspan
       x="69.461449"
       y="95.935867"
       font-size="14"
       id="tspan61"
       style="font-size:14px;font-family:Verdana">Node of</tspan><tspan
       x="69.926445"
       y="112.73587"
       font-size="14"
       id="tspan63"
       style="font-size:14px;font-family:Verdana">Ranvier</tspan></text>
<text
     font-size="14"
     id="text65"
     style="font-size:14px;font-family:Verdana"
     x="142.82565"
     y="72.935867">Axon Terminal</text>
<text
     font-size="14"
     id="text67"
     style="font-size:14px;font-family:Verdana"
     x="152.64795"
     y="217.93587">Schwann cell</text>
<text
     font-size="14"
     id="text69"
     style="font-size:14px;font-family:Verdana"
     x="64.147949"
     y="244.43587">Myelin sheath</text>
<text
     font-size="14"
     id="text71"
     style="font-size:14px;font-family:Verdana"
     x="-15.352054"
     y="222.43587">Axon</text>
<text
     font-size="14"
     id="text73"
     style="font-size:14px;font-family:Verdana"
     x="-155.35205"
     y="258.43588">Nucleus</text>
<path
     id="path3019"
     d="m 3.2015266,9.3984075 c 0,0 -3.62499998,-1.75 -2.49999998,-5 1.12499998,-3.25 2.12499998,-3.25 3.12499998,-3.62499996 1,-0.375 6.7500004,-0.25 7.2500004,-0.25 0.5,0 19.75,1.99999996 22.375,4.24999996 2.625,2.25 3.5,5 3.5,6.1250005 0,1.125 -0.25,4.75 -3.75,4.75 -3.5,0 -18.375,-0.25 -19,-0.875 -0.625,-0.625 -8.5000004,-2.75 -11.0000004,-5.3750005 z"
     inkscape:connector-curvature="0"
     style="fill:#f9d566;stroke:#000000;stroke-width:1" /><ellipse
     style="fill:#e68b60;stroke:#b76328"
     sodipodi:ry="2.125"
     sodipodi:rx="3.375"
     sodipodi:cy="144.839"
     sodipodi:cx="181.875"
     id="ellipse3021"
     ry="2.125"
     rx="3.375"
     cy="144.839"
     cx="181.875"
     transform="translate(-165.17347,-136.44059)" /></svg>